<svg x="0" y="0" width="300" height="300" version="1.1" xmlns="http://www.w3.org/2000/svg" xmlns:xlink="http://www.w3.org/1999/xlink"><defs><linearGradient x1="30" y1="131.27967" x2="30" y2="168.72033" gradientUnits="userSpaceOnUse" id="color-1"><stop offset="0" stop-color="#343435"></stop><stop offset="1" stop-color="#353434"></stop></linearGradient></defs><g data-paper-data="{&quot;description&quot;:&quot;Logo for cynance\n================\n\nThis logo was generated by MarkMaker and is composed of elements designed by others.\n\nThe font is Hind Kochi designed by Indian Type Foundry and released under the OFL license via Google Fonts: https://www.google.com/fonts/specimen/Hind Kochi. The font includes this copyright statement: Copyright (c) 2015 Indian Type Foundry (info@indiantypefoundry.com)\n\nMarkMaker uses semantic data from the Princeton University WordNet database http://wordnet.princeton.edu and font descriptions from Google Fonts https://www.google.com/fonts.\n\nThis design is inspired by designs that past users of MarkMaker have liked. As a result, it may be visually similar to past or future designs generated by the system. There is no guarantee that it is unique, original, or suitable in any way for use as a logo.\n\n&quot;}" fill="url(#color-1)" stroke="none" stroke-width="1" stroke-linecap="butt" stroke-linejoin="miter" stroke-miterlimit="10" stroke-dasharray="" stroke-dashoffset="0" font-family="sans-serif" font-weight="normal" font-size="12" text-anchor="start" mix-blend-mode="normal"><g data-paper-data="{&quot;elementType&quot;:&quot;logo&quot;}"><g data-paper-data="{&quot;elementType&quot;:&quot;text&quot;}"><g data-paper-data="{&quot;baseline&quot;:51.6,&quot;elementType&quot;:&quot;row&quot;}"><g data-paper-data="{&quot;baselineProportion&quot;:0.7478260869565218,&quot;fontSize&quot;:100,&quot;baseline&quot;:51.6,&quot;elementType&quot;:&quot;word&quot;}"><path d="M44.16233,159.87565c-4.34095,0 -7.78657,-1.38368 -10.33688,-4.15103c-2.55031,-2.76735 -3.82546,-6.12254 -3.82546,-10.06557c0,-3.94303 1.27515,-7.32534 3.82546,-10.14696c2.55031,-2.82161 6.0321,-4.23242 10.4454,-4.23242c2.35135,0 4.44947,0.50644 6.29437,1.51933l0,4.06964c-1.66403,-1.12141 -3.61745,-1.68212 -5.86028,-1.68212c-3.11101,0 -5.59801,1.00384 -7.461,3.01153c-1.86299,2.00769 -2.78544,4.49469 -2.76735,7.461c0.01809,2.96631 0.91341,5.43522 2.68596,7.40674c1.77255,1.97151 4.28668,2.95727 7.54239,2.95727c2.09812,0 4.05155,-0.59688 5.86028,-1.79064l0,4.06964c-1.73638,1.04906 -3.87068,1.57359 -6.40289,1.57359z" data-paper-data="{&quot;elementType&quot;:&quot;letter&quot;,&quot;baseline&quot;:51.6,&quot;baselineProportion&quot;:0.9791271347248578,&quot;fontSize&quot;:100}"></path><path d="M66.35541,168.72033c-0.94054,0 -1.7002,-0.09044 -2.279,-0.27131l0,-3.85259c0.54262,0.1447 1.15759,0.21705 1.8449,0.21705c3.65363,0 6.24011,-2.08004 7.75944,-6.24011l-11.12367,-26.80534l4.8293,0l8.41058,21.54194c0.2894,-1.01289 2.80353,-8.19353 7.54239,-21.54194l4.61225,0l-9.92991,26.80534c-1.41081,3.72598 -3.08388,6.34863 -5.01922,7.86796c-1.93534,1.51933 -4.15103,2.279 -6.64707,2.279z" data-paper-data="{&quot;elementType&quot;:&quot;letter&quot;,&quot;baseline&quot;:50.7,&quot;baselineProportion&quot;:0.7444933920704845,&quot;fontSize&quot;:100}"></path><path d="M123.43884,159.27877l-4.28668,0l0,-17.79787c0,-2.02577 -0.51549,-3.57224 -1.54646,-4.63939c-1.03097,-1.06715 -2.47796,-1.60072 -4.34095,-1.60072c-1.86299,0 -3.54511,0.79584 -5.04635,2.38752c-1.50124,1.59168 -2.25187,3.79833 -2.25187,6.61994l0,15.03052l-4.23242,0l0,-27.51074l4.23242,0l0,4.77504c1.62785,-3.43658 4.52182,-5.15487 8.68189,-5.15487c2.67692,0 4.81121,0.81393 6.40289,2.44178c1.59168,1.62785 2.38752,3.79833 2.38752,6.51142l0,18.93737z" data-paper-data="{&quot;elementType&quot;:&quot;letter&quot;,&quot;baseline&quot;:51.400000000000006,&quot;baselineProportion&quot;:1,&quot;fontSize&quot;:100}"></path><path d="M147.09699,159.55008c-2.56839,0 -4.63939,-0.75967 -6.21298,-2.279c-1.57359,-1.51933 -2.36039,-3.51797 -2.36039,-5.99593c0,-2.47796 1.00384,-4.44947 3.01153,-5.91454c2.00769,-1.46507 4.74791,-2.1976 8.22066,-2.1976l4.99209,0l0,-1.41081c0,-2.17047 -0.48836,-3.80737 -1.46507,-4.91069c-0.97671,-1.10332 -2.7764,-1.65499 -5.39905,-1.65499c-2.62265,0 -5.07348,0.77775 -7.35248,2.33326l0,-4.28668c2.06195,-1.26611 4.77504,-1.89916 8.13927,-1.89916c6.90934,0 10.36401,3.50893 10.36401,10.52679l0,17.41804l-4.23242,0l0,-3.25571c-1.41081,2.35135 -3.9792,3.52702 -7.70518,3.52702 M143.02736,151.35655c0,0 0,0.34366 0,1.03097c0,0.68732 0.45218,1.45603 1.35655,2.30613c0.90436,0.8501 2.279,1.27515 4.1239,1.27515c1.8449,0 3.34615,-0.55166 4.50373,-1.65499c1.15759,-1.10332 1.73638,-2.50509 1.73638,-4.20529l0,-3.52702l-4.77504,0c-2.31517,0 -4.05155,0.45218 -5.20913,1.35655c-1.15759,0.90436 -1.73638,2.04386 -1.73638,3.41849z" data-paper-data="{&quot;elementType&quot;:&quot;letter&quot;,&quot;baseline&quot;:51.5,&quot;baselineProportion&quot;:0.9903846153846154,&quot;fontSize&quot;:100}"></path><path d="M197.23491,159.27877l-4.28668,0l0,-17.79787c0,-2.02577 -0.51549,-3.57224 -1.54646,-4.63939c-1.03097,-1.06715 -2.47796,-1.60072 -4.34095,-1.60072c-1.86299,0 -3.54511,0.79584 -5.04635,2.38752c-1.50124,1.59168 -2.25187,3.79833 -2.25187,6.61994l0,15.03052l-4.23242,0l0,-27.51074l4.23242,0l0,4.77504c1.62785,-3.43658 4.52182,-5.15487 8.68189,-5.15487c2.67692,0 4.81121,0.81393 6.40289,2.44178c1.59168,1.62785 2.38752,3.79833 2.38752,6.51142l0,18.93737z" data-paper-data="{&quot;elementType&quot;:&quot;letter&quot;,&quot;baseline&quot;:51.400000000000006,&quot;baselineProportion&quot;:1,&quot;fontSize&quot;:100}"></path><path d="M226.26498,159.87565c-4.34095,0 -7.78657,-1.38368 -10.33688,-4.15103c-2.55031,-2.76735 -3.82546,-6.12254 -3.82546,-10.06557c0,-3.94303 1.27515,-7.32534 3.82546,-10.14696c2.55031,-2.82161 6.0321,-4.23242 10.4454,-4.23242c2.35135,0 4.44947,0.50644 6.29437,1.51933l0,4.06964c-1.66403,-1.12141 -3.61745,-1.68212 -5.86028,-1.68212c-3.11101,0 -5.59801,1.00384 -7.461,3.01153c-1.86299,2.00769 -2.78544,4.49469 -2.76735,7.461c0.01809,2.96631 0.91341,5.43522 2.68596,7.40674c1.77255,1.97151 4.28668,2.95727 7.54239,2.95727c2.09812,0 4.05155,-0.59688 5.86028,-1.79064l0,4.06964c-1.73638,1.04906 -3.87068,1.57359 -6.40289,1.57359z" data-paper-data="{&quot;elementType&quot;:&quot;letter&quot;,&quot;baseline&quot;:51.6,&quot;baselineProportion&quot;:0.9791271347248578,&quot;fontSize&quot;:100}"></path><path d="M260.44992,159.55008c-4.16007,0 -7.51526,-1.27515 -10.06557,-3.82546c-2.55031,-2.55031 -3.82546,-5.9688 -3.82546,-10.25548c0,-4.28668 1.1395,-7.69613 3.41849,-10.22835c2.279,-2.53222 5.17296,-3.79833 8.68189,-3.79833c3.50893,0 6.27628,1.10332 8.30206,3.30997c2.02577,2.20665 3.03866,5.33574 3.03866,9.38729c0,1.15759 -0.09044,2.22473 -0.27131,3.20145l-18.77459,0c0.32557,2.71309 1.35655,4.79313 3.09292,6.24011c1.73638,1.44698 4.07868,2.17047 7.0269,2.17047c2.94823,0 5.34479,-0.63305 7.18969,-1.89916l0,4.01537c-2.1343,1.12141 -4.73887,1.68212 -7.8137,1.68212z M265.71332,142.67466c0,-2.279 -0.61497,-4.09677 -1.8449,-5.45331c-1.22993,-1.35655 -2.90301,-2.03482 -5.01922,-2.03482c-2.11621,0 -3.89781,0.74158 -5.34479,2.22473c-1.44698,1.48316 -2.29708,3.59937 -2.55031,6.34863l14.75921,0l0,-1.08524" data-paper-data="{&quot;elementType&quot;:&quot;letter&quot;,&quot;baseline&quot;:51.300000000000004,&quot;baselineProportion&quot;:0.9903474903474904,&quot;fontSize&quot;:100}"></path></g></g></g></g></g></svg>